<?xml version="1.0" encoding="UTF-8"?>
<svg height="128px" viewBox="0 0 128 128" width="128px" xmlns="http://www.w3.org/2000/svg" xmlns:xlink="http://www.w3.org/1999/xlink">
    <filter id="a" height="100%" width="100%" x="0%" y="0%">
        <feColorMatrix color-interpolation-filters="sRGB" values="0 0 0 0 1 0 0 0 0 1 0 0 0 0 1 0 0 0 1 0"/>
    </filter>
    <linearGradient id="b" gradientTransform="matrix(4.756652 0 0 4.873735 -16.685595 -16.882918)" gradientUnits="userSpaceOnUse" x1="8.777254" x2="25.460602" y1="16.631514" y2="16.631514">
        <stop offset="0" stop-color="#9a9996"/>
        <stop offset="0.421307" stop-color="#5e5c64"/>
        <stop offset="0.577428" stop-color="#5e5c64"/>
        <stop offset="1" stop-color="#9a9996"/>
    </linearGradient>
    <radialGradient id="c" cx="17.24017" cy="15.767963" gradientTransform="matrix(4.506743 0 0 7.026771 -12.881352 -50.048409)" gradientUnits="userSpaceOnUse" r="8.341673">
        <stop offset="0.828058" stop-color="#3d3846"/>
        <stop offset="1" stop-color="#241f31"/>
    </radialGradient>
    <linearGradient id="d" gradientUnits="userSpaceOnUse">
        <stop offset="0.739684" stop-color="#ffffff"/>
        <stop offset="1" stop-color="#deddda"/>
    </linearGradient>
    <linearGradient id="e" gradientTransform="matrix(1.192409 0 0 1.184788 -3.408193 -2.6084)" x1="17.133514" x2="17.118647" xlink:href="#d" y1="2.697187" y2="13.170218"/>
    <linearGradient id="f" gradientUnits="userSpaceOnUse">
        <stop offset="0" stop-color="#5e5c64"/>
        <stop offset="1" stop-color="#241f31"/>
    </linearGradient>
    <linearGradient id="g" gradientTransform="matrix(1.192409 0 0 1.184788 -3.408193 -2.6084)" x1="17.118647" x2="17.133514" xlink:href="#f" y1="13.170218" y2="2.697187"/>
    <linearGradient id="h" gradientTransform="matrix(1.192409 0 0 1.184788 -3.408193 -2.6084)" gradientUnits="userSpaceOnUse" x1="15.295506" x2="14.822841" y1="13.01857" y2="8.628351">
        <stop offset="0.449594" stop-color="#5e5c64"/>
        <stop offset="1" stop-color="#9a9996"/>
    </linearGradient>
    <linearGradient id="i" gradientTransform="matrix(1.192409 0 0 1.184788 -3.411174 -2.579981)" x1="17.118647" x2="17.133514" xlink:href="#f" y1="13.170218" y2="2.697187"/>
    <radialGradient id="j" cx="17.010048" cy="20.712955" gradientTransform="matrix(4.506743 0 0 4.291874 -12.881352 -6.004589)" gradientUnits="userSpaceOnUse" r="6.45411">
        <stop offset="0" stop-color="#c01c28"/>
        <stop offset="1" stop-color="#a51d2d"/>
    </radialGradient>
    <radialGradient id="k" cx="17.067846" cy="19.752487" gradientTransform="matrix(1.192409 0 0 1.133667 -3.408193 -1.54844)" gradientUnits="userSpaceOnUse" r="2.190325">
        <stop offset="0" stop-color="#9a9996"/>
        <stop offset="1" stop-color="#77767b"/>
    </radialGradient>
    <linearGradient id="l" gradientTransform="matrix(4.506743 0 0 4.477939 -12.881352 -9.858519)" x1="17.133514" x2="17.118647" xlink:href="#d" y1="2.697187" y2="13.170218"/>
    <clipPath id="m">
        <path d="m 22 0 h 84 v 63 h -84 z m 0 0"/>
    </clipPath>
    <clipPath id="n">
        <path d="m 22 0 h 84 v 63 h -84 z m 0 0"/>
    </clipPath>
    <clipPath id="o">
        <rect height="128" width="128"/>
    </clipPath>
    <clipPath id="p">
        <rect height="128" width="128"/>
    </clipPath>
    <mask id="q">
        <g filter="url(#a)">
            <g clip-path="url(#p)" filter="url(#a)">
                <g clip-path="url(#o)">
                    <path d="m 63.949219 0.386719 c -17.484375 0.117187 -20.859375 -0.210938 -27.035157 3.773437 c -6.179687 3.984375 -7.707031 7.710938 -8.78125 13.582032 c -1.074218 5.875 -4.699218 62.300781 -2.214843 75.625 c 2.488281 13.324218 5.457031 16.632812 10.8125 22.722656 s 12.542969 9.050781 18.976562 10.691406 c 6.429688 1.640625 11.554688 1.613281 18.117188 -0.269531 c 6.5625 -1.886719 14.628906 -5.472657 19.613281 -11.84375 c 4.984375 -6.375 6.898438 -9.113281 9.765625 -22.363281 c 2.871094 -13.246094 0.171875 -68.859376 -2.972656 -76.871094 c -3.144531 -8.011719 -4.277344 -8.871094 -7.390625 -11.460938 c -3.109375 -2.59375 -11.40625 -3.703125 -28.890625 -3.585937 z m 0 0" fill="url(#b)"/>
                    <path d="m 64.0625 2.140625 c -16.566406 0.109375 -19.761719 -0.195313 -25.617188 3.46875 c -5.851562 3.660156 -7.300781 7.082031 -8.316406 12.480469 c -1.019531 5.394531 -4.453125 57.238281 -2.097656 69.480468 c 2.355469 12.242188 5.171875 15.285157 10.246094 20.878907 c 5.074218 5.59375 11.882812 8.3125 17.976562 9.820312 c 6.09375 1.511719 10.949219 1.484375 17.164063 -0.246093 c 6.21875 -1.734376 13.859375 -5.027344 18.582031 -10.882813 s 6.539062 -8.371094 9.253906 -20.542969 c 2.71875 -12.175781 0.164063 -63.269531 -2.816406 -70.632812 c -2.980469 -7.359375 -4.054688 -8.148438 -7 -10.527344 c -2.949219 -2.382812 -10.808594 -3.402344 -27.375 -3.296875 z m 0 0" fill="url(#c)"/>
                    <path d="m 41.261719 12.378906 c -5.453125 4.320313 -8.457031 31.460938 -1.820313 35.054688 c 6.640625 3.59375 4.203125 -0.589844 24.1875 -0.570313 c 19.980469 0.019531 18.457032 4.347657 24.640625 0.800781 c 6.1875 -3.546874 3.855469 -32.195312 -1.726562 -36.050781 c -4.339844 -2.996093 -16.015625 -2.304687 -23.046875 -2.191406 c -7.273438 0.117187 -17.875 -0.496094 -22.234375 2.957031 z m 0 0" fill="url(#l)"/>
                    <g clip-path="url(#m)">
                        <path d="m 10.917162 3.275252 c -1.442806 1.143083 -2.23759 8.324041 -0.481625 9.274887 c 1.756999 0.950847 1.112077 -0.156063 6.39961 -0.150895 c 5.2865 0.005168 4.883423 1.150317 6.519499 0.211873 c 1.63711 -0.938444 1.020093 -8.518343 -0.456819 -9.538436 c -1.148251 -0.792717 -4.237468 -0.609782 -6.09782 -0.57981 c -1.92443 0.031006 -4.729427 -0.131258 -5.882845 0.782381 z m 0 0" fill="none" stroke="url(#g)" stroke-width="0.628963" transform="matrix(3.779527 0 0 3.779527 0.000007 0)"/>
                    </g>
                    <path d="m 15.04921 12.403378 l -1.023194 -4.617806" fill="none" stroke="url(#h)" stroke-linecap="round" stroke-width="0.628963" transform="matrix(3.779527 0 0 3.779527 0.000007 0)"/>
                    <g clip-path="url(#n)">
                        <path d="m 10.915095 3.303158 c -1.44384 1.144116 -2.238623 8.32404 -0.482658 9.274886 c 1.756999 0.95188 1.11311 -0.156062 6.39961 -0.150895 c 5.286499 0.005168 4.883423 1.151351 6.520532 0.211874 c 1.636076 -0.938444 1.01906 -8.518344 -0.457853 -9.537403 c -1.14825 -0.79375 -4.237468 -0.610816 -6.097819 -0.57981 c -1.924431 0.031006 -4.729428 -0.131258 -5.881812 0.781348 z m 0 0" fill="none" stroke="url(#i)" stroke-width="0.628963" transform="matrix(3.779527 0 0 3.779527 0.000007 0)"/>
                    </g>
                    <path d="m 92.867188 82.894531 c 0 15.296875 -13.023438 27.699219 -29.089844 27.699219 c -16.0625 0 -29.085938 -12.402344 -29.085938 -27.699219 c 0 -15.300781 13.023438 -27.703125 29.085938 -27.703125 c 16.066406 0 29.089844 12.402344 29.089844 27.703125 z m 0 0" fill="url(#j)"/>
                    <path d="m 19.170922 21.957317 c 0 1.198894 -1.028361 2.170411 -2.296501 2.170411 c -1.268139 0 -2.295467 -0.971517 -2.295467 -2.170411 c 0 -1.197859 1.027328 -2.169376 2.295467 -2.169376 c 1.26814 0 2.296501 0.971517 2.296501 2.169376 z m 0 0" fill="url(#k)" stroke="#77767b" stroke-width="0.628963" transform="matrix(3.779527 0 0 3.779527 0.000007 0)"/>
                </g>
            </g>
        </g>
    </mask>
    <mask id="r">
        <g filter="url(#a)">
            <rect fill-opacity="0.8" height="184.32" width="184.32" x="-28.16" y="-28.16"/>
        </g>
    </mask>
    <linearGradient id="s" gradientTransform="matrix(0 0.37 -0.98462 0 295.38501 -30.360001)" gradientUnits="userSpaceOnUse" x1="300" x2="428" y1="235" y2="235">
        <stop offset="0" stop-color="#f9f06b"/>
        <stop offset="1" stop-color="#f5c211"/>
    </linearGradient>
    <clipPath id="t">
        <rect height="128" width="128"/>
    </clipPath>
    <clipPath id="u">
        <rect height="128" width="128"/>
    </clipPath>
    <path d="m 63.949219 0.386719 c -17.484375 0.117187 -20.859375 -0.210938 -27.035157 3.773437 c -6.179687 3.984375 -7.707031 7.710938 -8.78125 13.582032 c -1.074218 5.875 -4.699218 62.300781 -2.214843 75.625 c 2.488281 13.324218 5.457031 16.632812 10.8125 22.722656 s 12.542969 9.050781 18.976562 10.691406 c 6.429688 1.640625 11.554688 1.613281 18.117188 -0.269531 c 6.5625 -1.886719 14.628906 -5.472657 19.613281 -11.84375 c 4.984375 -6.375 6.898438 -9.113281 9.765625 -22.363281 c 2.871094 -13.246094 0.171875 -68.859376 -2.972656 -76.871094 c -3.144531 -8.011719 -4.277344 -8.871094 -7.390625 -11.460938 c -3.109375 -2.59375 -11.40625 -3.703125 -28.890625 -3.585937 z m 0 0" fill="url(#b)"/>
    <path d="m 64.0625 2.140625 c -16.566406 0.109375 -19.761719 -0.195313 -25.617188 3.46875 c -5.851562 3.660156 -7.300781 7.082031 -8.316406 12.480469 c -1.019531 5.394531 -4.453125 57.238281 -2.097656 69.480468 c 2.355469 12.242188 5.171875 15.285157 10.246094 20.878907 c 5.074218 5.59375 11.882812 8.3125 17.976562 9.820312 c 6.09375 1.511719 10.949219 1.484375 17.164063 -0.246093 c 6.21875 -1.734376 13.859375 -5.027344 18.582031 -10.882813 s 6.539062 -8.371094 9.253906 -20.542969 c 2.71875 -12.175781 0.164063 -63.269531 -2.816406 -70.632812 c -2.980469 -7.359375 -4.054688 -8.148438 -7 -10.527344 c -2.949219 -2.382812 -10.808594 -3.402344 -27.375 -3.296875 z m 0 0" fill="url(#c)"/>
    <g stroke-width="0.628963">
        <path d="m 10.917162 3.275252 c -1.442806 1.143083 -2.23759 8.324041 -0.481625 9.274887 c 1.756999 0.950847 1.112077 -0.156063 6.39961 -0.150895 c 5.2865 0.005168 4.883423 1.150317 6.519499 0.211873 c 1.63711 -0.938444 1.020093 -8.518343 -0.456819 -9.538436 c -1.148251 -0.792717 -4.237468 -0.609782 -6.09782 -0.57981 c -1.92443 0.031006 -4.729427 -0.131258 -5.882845 0.782381 z m 0 0" fill="url(#e)" stroke="url(#g)" transform="matrix(3.779527 0 0 3.779527 0.000007 0)"/>
        <path d="m 15.04921 12.403378 l -1.023194 -4.617806" fill="none" stroke="url(#h)" stroke-linecap="round" transform="matrix(3.779527 0 0 3.779527 0.000007 0)"/>
        <path d="m 10.915095 3.303158 c -1.44384 1.144116 -2.238623 8.32404 -0.482658 9.274886 c 1.756999 0.95188 1.11311 -0.156062 6.39961 -0.150895 c 5.286499 0.005168 4.883423 1.151351 6.520532 0.211874 c 1.636076 -0.938444 1.01906 -8.518344 -0.457853 -9.537403 c -1.14825 -0.79375 -4.237468 -0.610816 -6.097819 -0.57981 c -1.924431 0.031006 -4.729428 -0.131258 -5.881812 0.781348 z m 0 0" fill="none" stroke="url(#i)" transform="matrix(3.779527 0 0 3.779527 0.000007 0)"/>
    </g>
    <path d="m 92.867188 82.894531 c 0 15.296875 -13.023438 27.699219 -29.089844 27.699219 c -16.0625 0 -29.085938 -12.402344 -29.085938 -27.699219 c 0 -15.300781 13.023438 -27.703125 29.085938 -27.703125 c 16.066406 0 29.089844 12.402344 29.089844 27.703125 z m 0 0" fill="url(#j)"/>
    <path d="m 19.170922 21.957317 c 0 1.198894 -1.028361 2.170411 -2.296501 2.170411 c -1.268139 0 -2.295467 -0.971517 -2.295467 -2.170411 c 0 -1.197859 1.027328 -2.169376 2.295467 -2.169376 c 1.26814 0 2.296501 0.971517 2.296501 2.169376 z m 0 0" fill="url(#k)" stroke="#77767b" stroke-width="0.628963" transform="matrix(3.779527 0 0 3.779527 0.000007 0)"/>
    <g mask="url(#q)">
        <g clip-path="url(#u)">
            <g mask="url(#r)">
                <g clip-path="url(#t)">
                    <path d="m 128 80.640625 v 47.359375 h -128 v -47.359375 z m 0 0" fill="url(#s)"/>
                    <path d="m 13.308594 80.640625 l 47.355468 47.359375 h 21.214844 l -47.359375 -47.359375 z m 42.421875 0 l 47.363281 47.359375 h 21.214844 l -47.363282 -47.359375 z m 42.429687 0 l 29.839844 29.839844 v -21.210938 l -8.628906 -8.628906 z m -98.160156 7.90625 v 21.214844 l 18.238281 18.238281 h 21.214844 z m 0 0"/>
                </g>
            </g>
        </g>
    </g>
</svg>
